<?xml version="1.0" standalone="no"?><!DOCTYPE svg PUBLIC "-//W3C//DTD SVG 1.1//EN"
        "http://www.w3.org/Graphics/SVG/1.1/DTD/svg11.dtd">
<svg t="1753432470872" class="icon" viewBox="0 0 1024 1024" version="1.1" xmlns="http://www.w3.org/2000/svg" p-id="8130"
     width="32" height="32" xmlns:xlink="http://www.w3.org/1999/xlink">
    <path d="M900.3 898H721c-33 0-59.7-26.8-59.7-59.7V720.2c0-33 26.8-59.7 59.7-59.7h59.7V541.6H243.1v118.8h59.7c33 0 59.7 26.8 59.7 59.7v118.1c0 33-26.8 59.7-59.7 59.7H123.6c-33 0-59.7-26.8-59.7-59.7v-118c0-33 26.8-59.7 59.7-59.7h59.7V511.9c0-16.4 13.3-29.7 29.7-29.7h269V363.4h-59.7c-33 0-59.7-26.7-59.7-59.7V185.6c0-33 26.8-59.7 59.7-59.7h179.2c33 0 59.7 26.7 59.7 59.7v118.1c0 33-26.8 59.7-59.7 59.7h-59.7v118.8h269c16.4 0 29.7 13.3 29.7 29.7v148.5h59.7c33 0 59.7 26.8 59.7 59.7v118.1c0.1 33-26.6 59.8-59.6 59.8z m0 0"
          p-id="8131"></path>
</svg>
