<svg t="1753432828472" class="icon" viewBox="0 0 1706 1024" version="1.1" xmlns="http://www.w3.org/2000/svg"
     p-id="12528" width="32" height="32">
    <path d="M775.049472 62.077488a84.924224 84.924224 0 0 1 84.924225 84.924224v274.314519h237.35062V147.001712a84.924224 84.924224 0 1 1 169.848449 0v739.410446a84.924224 84.924224 0 0 1-169.848449 0v-331.880159h-237.35062v331.880159a84.924224 84.924224 0 1 1-169.848449 0V147.001712A84.924224 84.924224 0 0 1 775.049472 62.077488z m591.356124 710.726991l172.233216-358.112603h117.648535v357.31768h48.159057v83.268136h-48.092814v115.727472h-105.989671v-115.727472h-183.958323v-82.473213z m78.034895-0.662436h105.989672v-231.852406zM431.444206 283.19844a71.874246 71.874246 0 0 0 143.748492 0 287.629471 287.629471 0 0 0-575.192698 0v453.172089a287.629471 287.629471 0 0 0 575.258942 0 71.940489 71.940489 0 0 0-143.814736 0 143.814735 143.814735 0 0 1-287.629471 0V283.19844a143.814735 143.814735 0 0 1 287.629471 0z"
          p-id="12529"></path>
</svg>
