<svg t="1753432716015" class="icon" viewBox="0 0 1144 1024" version="1.1" xmlns="http://www.w3.org/2000/svg"
     p-id="10473" width="32" height="32">
    <path d="M276.233 747.767c0 84.275 44.812 161.86 117.716 203.998 72.904 42.137 163.198 42.137 236.102 0s117.716-119.723 117.716-203.998c0-130.424-105.677-236.101-236.101-236.101-130.425 0-235.433 105.677-235.433 236.101z m554.471-598.615c0 60.196 48.826 109.022 109.022 109.022s109.021-48.826 109.021-109.022S999.922 40.131 939.726 40.131 830.704 88.956 830.704 149.152z m0 0M384.585 101.664c0 16.721 9.364 32.774 24.079 41.469 14.714 8.695 32.773 8.695 47.488 0 14.714-8.695 24.078-24.079 24.078-41.469 0-16.72-9.364-32.773-24.078-40.8a46.485 46.485 0 0 0-47.488 0c-14.715 8.027-24.079 23.41-24.079 40.8z m664.162 359.838c0 16.721 9.364 32.774 24.079 41.469 14.714 8.695 32.773 8.695 47.488 0 14.714-8.695 24.078-24.079 24.078-41.469 0-16.72-9.364-32.773-24.078-40.8a46.485 46.485 0 0 0-47.488 0c-15.384 8.027-24.079 24.08-24.079 40.8z m0 0M7.357 414.014c0 54.177 44.144 97.652 97.651 97.652 54.177 0 97.652-44.144 97.652-97.652 0-34.78-18.728-67.553-48.826-84.943s-67.553-17.39-97.651 0-48.826 50.163-48.826 84.943z m0 0"
          p-id="10474"></path>
</svg>
