<svg t="1753432645770" class="icon" viewBox="0 0 1365 1024" version="1.1" xmlns="http://www.w3.org/2000/svg" p-id="9305"
     width="32" height="32">
    <path d="M221.866667 508.586667c0-278.528 139.264-440.32 341.333333-440.32s341.333333 162.816 341.333333 440.32-139.264 447.146667-341.333333 447.146666S221.866667 785.749333 221.866667 508.586667z m527.018666 0c0-183.637333-72.362667-293.546667-185.685333-293.546667s-185.685333 109.568-185.685333 293.546667c0 182.613333 72.362667 299.349333 185.685333 299.349333s185.685333-116.736 185.685333-299.349333zM941.397333 921.258667c81.92-73.386667 130.389333-129.706667 130.389334-176.128 0-30.378667-16.725333-48.810667-45.056-48.810667-21.845333 0-40.277333 14.336-55.296 31.061333l-32.426667-32.426666c27.648-29.354667 54.613333-45.738667 95.573333-45.738667 57.002667 0 94.890667 36.522667 94.890667 92.842667 0 54.613333-45.056 113.322667-100.010667 166.912 15.018667-1.706667 35.157333-3.413333 48.810667-3.413334H1143.466667V955.733333h-202.069334v-34.474666z"
          p-id="9306"></path>
</svg>
